<svg width="25" height="18" viewBox="0 0 25 18" fill="none" xmlns="http://www.w3.org/2000/svg">
  <path d="M9.00767 17.7411C9.13349 17.7691 9.33622 17.7691 9.45506 17.7341C9.66826 17.6747 9.69972 17.6502 10.4652 16.8638L11.2551 16.0529L11.2831 15.8292C11.346 15.3609 11.4718 15.5147 9.02165 13.0435L6.83363 10.8346L15.5123 10.8311C20.4336 10.8311 24.2539 10.8066 24.3307 10.7716C24.5894 10.6528 24.7886 10.3976 24.8515 10.118C24.9179 9.79996 24.9075 8.20964 24.8341 7.98245C24.7711 7.7937 24.53 7.53156 24.3307 7.43719C24.2539 7.40224 20.4336 7.37777 15.5123 7.37777L6.83363 7.37428L9.02165 5.16529C11.4718 2.69417 11.346 2.84796 11.2831 2.37959L11.2551 2.1559L10.4652 1.34501C9.67875 0.53761 9.67176 0.530619 9.44457 0.4712C9.31175 0.436249 9.11602 0.436248 8.99019 0.471201L8.77348 0.534115L4.71203 4.59557L0.650575 8.65703L0.587661 8.87373C0.556204 8.99606 0.552709 9.19529 0.587661 9.32112L0.647079 9.54831L4.71553 13.6168L8.78397 17.6852L9.00767 17.7411Z" fill="black" />
</svg>