<svg width="25" height="18" viewBox="0 0 25 18" fill="none" xmlns="http://www.w3.org/2000/svg">
  <path d="M16.2306 0.258879C16.1048 0.230916 15.9021 0.230917 15.7832 0.265869C15.57 0.325287 15.5386 0.349755 14.7731 1.13618L13.9832 1.94707L13.9552 2.17077C13.8923 2.63913 13.7665 2.48534 16.2166 4.95646L18.4046 7.16545L9.726 7.16894C4.80471 7.16894 0.98443 7.19341 0.907535 7.22836C0.648888 7.3472 0.44966 7.60235 0.386746 7.88197C0.320337 8.20004 0.330823 9.79036 0.404223 10.0176C0.467137 10.2063 0.708308 10.4684 0.907536 10.5628C0.984431 10.5978 4.80471 10.6222 9.726 10.6222L18.4046 10.6257L16.2166 12.8347C13.7665 15.3058 13.8923 15.152 13.9552 15.6204L13.9832 15.8441L14.7731 16.655C15.5595 17.4624 15.5665 17.4694 15.7937 17.5288C15.9265 17.5638 16.1223 17.5638 16.2481 17.5288L16.4648 17.4659L20.5263 13.4044L24.5877 9.34298L24.6506 9.12627C24.6821 9.00394 24.6856 8.80471 24.6506 8.67888L24.5912 8.45169L20.5228 4.38325L16.4543 0.314802L16.2306 0.258879Z" fill="#8F8F8F" />
</svg>