<svg width="60" height="50" viewBox="0 0 60 50" fill="none" xmlns="http://www.w3.org/2000/svg">
  <path d="M27.9058 0.754066C25.9143 1.42999 24.5262 2.74562 23.7658 4.71303L23.4279 5.57L17.6343 5.60621L11.8286 5.63035V6.8977V8.16505H7.66443H3.48821L3.52442 8.91339L3.56063 9.6738L4.10378 9.73415C4.63486 9.7945 4.64693 9.80657 4.63486 10.2169C4.63486 10.4463 4.62279 17.8211 4.61072 26.5959L4.58658 42.5646H3.31923H2.05188V43.3491V44.1337H29.9939H57.9481L57.9119 43.3733L57.8757 42.6249L56.6083 42.6128L55.341 42.5887V26.1373V9.6738L55.86 9.71001L56.3669 9.75829V8.96167V8.16505H52.2028H48.0386V6.8977V5.63035L42.2329 5.60621L36.4152 5.57L36.2703 5.07513C35.6668 3.0353 33.8563 1.24894 31.7562 0.633366C30.7181 0.331615 28.9801 0.379894 27.9058 0.754066ZM30.8388 4.89408C31.1044 5.01478 31.5027 5.30446 31.7079 5.54586C32.2148 6.12522 32.3114 6.69251 32.0458 7.3805L31.8407 7.92365H29.9215H28.0024L27.8696 7.58569C27.6161 6.93391 27.6041 6.52353 27.8575 6.04073C28.1714 5.42516 28.5938 5.05099 29.1732 4.8458C29.8008 4.61647 30.2716 4.62854 30.8388 4.89408ZM45.2263 26.6925C45.2384 34.5863 45.2142 41.3938 45.1901 41.8042L45.1177 42.5646H44.4659H43.8141V28.0806V13.5966H29.9939H16.1738L16.1617 17.3624C16.1617 19.4384 16.1617 25.7631 16.1738 31.4119C16.1859 37.0606 16.1496 41.8886 16.1134 42.13L16.0289 42.5646H15.3772H14.7254V27.4167V12.2689L29.9698 12.293L45.2021 12.3292L45.2263 26.6925ZM37.5377 15.1415C37.5377 15.3467 36.0772 16.9037 35.3772 17.459C33.0114 19.3539 30.0181 19.8367 27.0006 18.8349C25.5039 18.3401 23.7779 17.0365 22.5467 15.4915L22.1846 15.045H22.9571H23.7175L24.6228 15.9261C26.1436 17.3865 27.8334 18.0625 29.9336 18.0625C32.0579 18.0625 33.7477 17.3745 35.2685 15.8899L36.21 14.9846L36.8738 15.0208C37.2359 15.045 37.5377 15.1053 37.5377 15.1415ZM20.9173 15.6967C21.1466 16.0468 21.6898 16.6985 22.1122 17.1451C22.5347 17.5797 22.8123 17.9418 22.7399 17.9418C22.6674 17.9418 22.1243 17.7004 21.5329 17.4107C20.4345 16.8796 19.2878 16.083 18.6602 15.4191L18.2981 15.045H19.3965H20.4828L20.9173 15.6967ZM34.1581 15.0932C34.1581 15.2381 32.7338 16.0588 32.1303 16.264C31.2251 16.5778 29.6801 16.6865 28.7024 16.5054C27.8575 16.3364 26.6868 15.8174 26.1315 15.3588L25.7694 15.057L29.9698 15.045C32.2752 15.045 34.1581 15.0691 34.1581 15.0932ZM41.4484 15.3105C41.1587 15.6364 39.4206 16.9279 38.9499 17.1813C38.7568 17.2779 38.2378 17.4952 37.8032 17.6521L37.0187 17.9538L37.7067 17.2176C38.0808 16.8072 38.5999 16.1554 38.8654 15.7571L39.3603 15.045H40.519H41.6777L41.4484 15.3105ZM19.0464 17.6641C19.5775 18.0383 19.6741 18.159 19.6741 18.4849C19.6741 19.7281 18.624 23.9285 17.936 25.4252L17.6343 26.089V21.2851L17.6222 16.4813L18.0205 16.8555C18.2257 17.0606 18.6964 17.4227 19.0464 17.6641ZM42.3657 21.3455C42.3536 26.7649 42.3898 26.6442 41.6053 24.3751C41.1587 23.1077 40.6638 20.911 40.4345 19.1488L40.2897 18.1228L40.6276 17.8814C40.8087 17.7486 41.2553 17.3865 41.6294 17.0727C42.0036 16.7589 42.3174 16.5054 42.3416 16.4934C42.3536 16.4934 42.3657 18.678 42.3657 21.3455ZM22.0277 19.2574C22.595 19.4988 22.8847 19.6919 22.9088 19.8367C22.9692 20.1988 22.1243 22.4801 21.4484 23.7836C20.8449 24.9665 19.7465 26.5597 19.1551 27.0908C18.8654 27.3684 18.8654 27.3201 19.3965 25.8235C20.0965 23.8198 20.7 21.6231 20.8811 20.4161C21.038 19.3057 21.1104 18.9074 21.1587 18.9074C21.1708 18.9074 21.5691 19.0643 22.0277 19.2574ZM39.0344 19.7764C39.1551 21.1162 39.6499 23.156 40.3741 25.3286C40.7362 26.4028 41.0139 27.3081 40.9897 27.3201C40.9173 27.4046 39.9276 26.1252 39.2275 25.051C38.4429 23.8319 37.5739 21.9007 37.1877 20.5006L36.9463 19.6195L37.2118 19.5229C37.3566 19.4626 37.755 19.3057 38.0808 19.1729C38.4188 19.0281 38.7447 18.9194 38.8171 18.9194C38.9016 18.9074 38.9861 19.2695 39.0344 19.7764ZM25.4798 19.9454C28.6904 21.0437 30.8509 21.08 33.8926 20.1023C34.7133 19.8247 35.4013 19.6316 35.4254 19.6557C35.4375 19.6798 35.5824 20.1144 35.7272 20.6334C36.2945 22.6732 37.2963 24.8458 38.5395 26.6804C39.3241 27.8633 40.9173 29.5893 41.9432 30.3739L42.583 30.8687L42.1243 31.6774C40.7483 34.1276 39.6258 38.1107 39.3965 41.3334L39.312 42.5646H38.5999H37.8877L37.9481 42.0456C37.9843 41.7679 38.0446 41.1282 38.0808 40.6334C38.286 37.9659 39.3241 34.1518 40.4466 31.9309L40.7845 31.255L39.7465 30.2411C38.274 28.7806 36.9583 26.9701 35.9807 25.0631C35.2806 23.6991 35.003 23.0474 34.4719 21.4903C34.4357 21.3938 34.0857 21.4421 33.3494 21.6352C31.0561 22.2628 28.7869 22.2507 26.5902 21.611C26.0229 21.4421 25.5401 21.3334 25.528 21.3455C25.5039 21.3696 25.2866 21.9249 25.0452 22.5887C23.8865 25.7028 21.8588 28.8168 19.8189 30.5911L19.143 31.1826L19.6379 32.2568C20.9173 35.0329 21.6536 38.0262 21.907 41.5748L21.9795 42.5766L21.2794 42.5404L20.5793 42.5042L20.4948 41.2369C20.3017 38.0262 19.3361 34.5139 17.9119 31.8585L17.3929 30.8808L18.3222 30.0721C21.207 27.5615 23.4279 23.9888 24.2124 20.5609C24.3331 20.054 24.4659 19.6316 24.5021 19.6316C24.5504 19.6316 24.9849 19.7643 25.4798 19.9454ZM42.3657 38.7022V42.5646H41.5811H40.7966V41.9852C40.7966 41.3093 41.0742 39.366 41.3397 38.0987C41.5329 37.1813 42.2329 34.8398 42.3174 34.8398C42.3416 34.8398 42.3657 36.5778 42.3657 38.7022ZM18.4067 37.2055C18.7568 38.5453 19.0706 40.7179 19.0706 41.78V42.5646H18.3464H17.6222L17.6343 38.7263V34.9001L17.8757 35.4915C18.0084 35.8174 18.2498 36.5899 18.4067 37.2055Z" fill="#656565" />
  <path d="M1.48461 45.4372L0 45.4734V46.1856V46.9098H0.8449H1.6898V48.153V49.4083L3.77791 49.4807C6.46952 49.5893 56.041 49.5893 57.248 49.4927L58.1774 49.4083V48.165V46.9218L59.0585 46.8856L59.9276 46.8494L59.9638 46.1494L60 45.4614H58.4188H56.8497V46.7287V47.9961L55.9203 48.0202C55.4013 48.0202 43.3193 48.0443 29.0646 48.0564L3.1382 48.0685V46.777C3.1382 46.0649 3.10199 45.4614 3.05371 45.4372C2.99336 45.4131 2.2933 45.4131 1.48461 45.4372Z" fill="#656565" />
  <path d="M4.46588 46.0649V46.777L7.70064 46.8132C9.47493 46.8373 20.9656 46.8373 33.2287 46.8132L55.5341 46.777L55.4979 46.089L55.4617 45.401L29.9698 45.3648L4.46588 45.3407V46.0649Z" fill="#656565" />
</svg>