<svg width="20" height="12" viewBox="0 0 24 15" fill="none" xmlns="http://www.w3.org/2000/svg">
  <path d="M0.614756 0.0820312C0.386464 0.181641 0.205 0.386719 0.0879269 0.65625C0.017683 0.837891 0.00012207 1.17773 0.00012207 2.63672C0.00012207 4.85156 0.00012207 4.8457 0.790366 5.26172C1.54549 5.66016 2.02549 6.30469 2.17183 7.11328C2.34744 8.14453 1.77963 9.21094 0.784512 9.71484C0.386464 9.91992 0.164025 10.1426 0.0645123 10.4238C0.0235367 10.5527 0.00012207 11.2207 0.00012207 12.3867C0.00012207 13.9746 0.0118294 14.1738 0.111342 14.3848C0.234268 14.6543 0.427439 14.8477 0.661586 14.9355C0.772805 14.9766 1.74451 15 3.48305 15H6.13476L6.16988 14.8594C6.26939 14.4551 6.79622 14.1387 7.24695 14.209C7.53963 14.25 7.87915 14.5195 8.00207 14.8066L8.07817 15H15.6235C20.8274 15 23.2216 14.9824 23.3387 14.9355C23.5728 14.8477 23.766 14.6543 23.8889 14.3848C23.9884 14.1738 24.0001 13.9746 24.0001 12.3867C24.0001 11.2207 23.9767 10.5527 23.9357 10.4238C23.8362 10.1367 23.6138 9.91992 23.163 9.68555C22.4606 9.31641 21.963 8.63086 21.8401 7.86328C21.6762 6.82617 22.2499 5.73047 23.204 5.27344C23.6138 5.08008 23.7777 4.92188 23.9123 4.61719C23.9826 4.43555 24.0001 4.0957 24.0001 2.625C24.0001 1.02539 23.9884 0.826172 23.8889 0.615234C23.766 0.345703 23.5728 0.152344 23.3387 0.0644531C23.2216 0.0175781 20.8274 0 15.6235 0H8.07817L8.00207 0.193359C7.87915 0.480469 7.53963 0.75 7.24695 0.791016C6.79622 0.861328 6.26939 0.544922 6.16988 0.140625L6.13476 0H3.45963C1.36402 0.00585938 0.755244 0.0234375 0.614756 0.0820312ZM7.38159 2.93555C7.61573 3.01758 7.87915 3.24609 7.99622 3.46875C8.11915 3.70312 8.11329 6.14648 7.99622 6.38086C7.75037 6.84375 7.20012 7.07227 6.7611 6.88477C6.45671 6.76172 6.32793 6.63867 6.19915 6.35742C6.10549 6.15234 6.08793 5.96484 6.08793 4.92188C6.08793 3.87891 6.10549 3.69141 6.19915 3.48633C6.32793 3.19922 6.48012 3.05859 6.77281 2.95312C7.04793 2.85938 7.12988 2.85352 7.38159 2.93555ZM7.38159 9.08789C7.49281 9.12891 7.65671 9.22266 7.74451 9.31055C8.06646 9.60352 8.07817 9.67383 8.07817 11.0801C8.07817 12.2812 8.06646 12.3926 7.95524 12.5918C7.71524 13.0254 7.18841 13.2188 6.7611 13.043C6.45671 12.9141 6.32793 12.791 6.19915 12.5098C6.10549 12.3047 6.08793 12.1172 6.08793 11.0742C6.08793 10.0312 6.10549 9.84375 6.19915 9.63867C6.32793 9.35156 6.48012 9.21094 6.77281 9.10547C7.04793 9.01172 7.12988 9.00586 7.38159 9.08789Z" fill="#848484" />
</svg>